<svg xmlns="http://www.w3.org/2000/svg" viewBox="0 0 2173.92 539.13"><title>logo</title><path d="M-851.6,1083.71l-16.6,109.78h-73.6l80.4-500.2h96.1l85.3,500.2h-75.5l-16.7-109.78h-79.4Zm38.2-269.55-28.4,199.59H-784Z" transform="translate(941.8 -665.29)" style="fill:#fff"/><path d="M-444.1,1190.62H-614.7V693.29H-550v427.44h105.9v69.9h0Z" transform="translate(941.8 -665.29)" style="fill:#fff"/><path d="M-209.7,1190.62H-379.3V693.29h64.7v427.44h104.9v69.9h0Z" transform="translate(941.8 -665.29)" style="fill:#fff"/><path d="M9,823.7A106.9,106.9,0,0,0-3.7,777.6a33.3,33.3,0,0,0-29.4-13.7,37.3,37.3,0,0,0-30.4,12.7,52.9,52.9,0,0,0-10.8,35.3,86.3,86.3,0,0,0,2.9,23.5,85.3,85.3,0,0,0,10.8,22.5A162.8,162.8,0,0,0-41,882.4l32.4,31.4q28.4,26.5,47.1,46.1a227.5,227.5,0,0,1,29.4,38.2,124.5,124.5,0,0,1,14.7,36.3,183.3,183.3,0,0,1,3.9,40.2,148,148,0,0,1-8.8,51,114.7,114.7,0,0,1-23.5,39.2,108.8,108.8,0,0,1-37.3,25.6,118.6,118.6,0,0,1-47.1,8.8,121.6,121.6,0,0,1-49-9.8,109.8,109.8,0,0,1-38.2-27.5,129.4,129.4,0,0,1-25.5-42.2,164.7,164.7,0,0,1-9.8-54.9l69.6-12.7q2.9,76.5,52,76.5a40.2,40.2,0,0,0,32.4-14.7,58.8,58.8,0,0,0,11.8-39.2,87.3,87.3,0,0,0-19.6-52.9l-7.8-9.8-9.8-9.8L-39,987.4l-24.5-22.5a422.5,422.5,0,0,1-39.2-40.2,237.3,237.3,0,0,1-25.5-36.3,141.2,141.2,0,0,1-14.7-35.3,161.8,161.8,0,0,1-4.9-38.2,122.6,122.6,0,0,1,31.4-88.2,110.8,110.8,0,0,1,84.3-33.3q98,0,110.8,118.6Z" transform="translate(941.8 -665.29)" style="fill:#fff"/><path d="M228.5,693.29v199.4L304,693.29h66.7l-72.6,173,83.3,324.35H312.9l-54-230.26-29.4,68.73v162.7H164.8V693.29h63.7Z" transform="translate(941.8 -665.29)" style="fill:#fff"/><path d="M594.7,1190.5H530V988.88L450.6,693.29h66.7l45.1,194.84,44.1-194.84h64.7L594.7,988.88V1190.5h0Z" transform="translate(941.8 -665.29)" style="fill:#fff"/><path d="M1189.47,1133.12c15.05-15.61,13.89-44.71-.44-81.67a260.44,260.44,0,0,1-66.71,88.68C1152.79,1148.37,1176.42,1146.65,1189.47,1133.12Z" transform="translate(941.8 -665.29)" style="fill:none"/><path d="M708.93,836.18a250.19,250.19,0,0,0-21.24,124.3A266.18,266.18,0,0,1,708.93,836.18Z" transform="translate(941.8 -665.29)" style="fill:#5e4b5e"/><path d="M1088.95,1128.31a256.22,256.22,0,0,0,33.38,11.82,260.44,260.44,0,0,0,66.71-88.68,330.77,330.77,0,0,0-17.56-37.46A232.45,232.45,0,0,1,1088.95,1128.31Z" transform="translate(941.8 -665.29)" style="fill:#ffc74a"/><path d="M858.78,702.37q-4.14-2.34-8.22-4.55a265.06,265.06,0,0,0-52.46,28.89,261.33,261.33,0,0,0-89.17,109.46A249,249,0,0,1,858.78,702.37Z" transform="translate(941.8 -665.29)" style="fill:#ffc74a"/><path d="M927.77,1173.28a247,247,0,0,1-61.72,4.21c-99.47-28.73-169.62-116.16-178.37-217a263.07,263.07,0,0,0,401.39,204.14q-16.25-6.69-33.56-15.58A231.72,231.72,0,0,1,927.77,1173.28Z" transform="translate(941.8 -665.29)" style="fill:#ffc74a"/><path d="M949.25,690.72a247,247,0,0,1,56.82,24.47c117.33,29,194.36,144.45,173.68,265.43-0.11.63-.23,1.25-0.35,1.88,8.08,12.85,15.31,25.43,21.63,37.64a267,267,0,0,0,8.29-34.46A263.17,263.17,0,0,0,862.59,693.22q5.09,2.42,10.27,5A246.86,246.86,0,0,1,949.25,690.72Z" transform="translate(941.8 -665.29)" style="fill:#ffc74a"/><path d="M866.05,1177.49a247,247,0,0,0,61.72-4.21q-8.45-.82-16.94-2.26c-126.64-21.64-212.06-142.28-190.42-268.92,15.46-90.48,81.47-159.91,164.09-184.29q-13.12-8.32-25.72-15.44a249,249,0,0,0-149.85,133.8,266.18,266.18,0,0,0-21.24,124.3C696.44,1061.33,766.58,1148.76,866.05,1177.49Z" transform="translate(941.8 -665.29)" style="fill:#ffc74a"/><path d="M989.33,711.69q8.49,1.45,16.73,3.5a247,247,0,0,0-56.82-24.47,246.86,246.86,0,0,0-76.39,7.55q13.79,7,28.13,15.32A231.76,231.76,0,0,1,989.33,711.69Z" transform="translate(941.8 -665.29)" style="fill:#ffc74a"/><path d="M763.16,665.29c24,3.16,54,14.43,87.39,32.53q6-2.45,12-4.6C824.62,675.16,790.41,665.38,763.16,665.29Z" transform="translate(941.8 -665.29)" style="fill:#fff"/><path d="M1024.32,1131.65q15.89,9.5,31.2,17.38a235,235,0,0,0,33.43-20.72,419.91,419.91,0,0,1-37.89-18.67A249.84,249.84,0,0,1,1024.32,1131.65Z" transform="translate(941.8 -665.29)" style="fill:#fff"/><path d="M1201,1020.12a262.15,262.15,0,0,1-12,31.33c14.32,37,15.49,66.06.44,81.67-13.05,13.54-36.68,15.26-67.15,7q-9.68,8.36-20.26,15.86-6.39,4.52-13,8.62c57.51,23.66,104.26,26.15,127.65,1.88C1242.68,1139.59,1234.72,1085.17,1201,1020.12Z" transform="translate(941.8 -665.29)" style="fill:#fff"/><path d="M834.66,932.45L812.74,948.6a923,923,0,0,0,63.95,68.13c49.24,47.48,100.19,86.55,147.64,114.92a249.84,249.84,0,0,0,26.74-22C999,1080.9,939,1036,880.51,979.56,864.32,963.94,849,948.17,834.66,932.45Z" transform="translate(941.8 -665.29)" style="fill:#fff"/><path d="M1122.32,1140.13a256.22,256.22,0,0,1-33.38-11.82,235,235,0,0,1-33.43,20.72q17.27,8.89,33.56,15.58,6.59-4.11,13-8.62Q1112.64,1148.51,1122.32,1140.13Z" transform="translate(941.8 -665.29)" style="fill:#fff"/><path d="M872.86,698.27q-5.18-2.62-10.27-5-6.06,2.15-12,4.6,4.08,2.21,8.22,4.55Q865.74,700.11,872.86,698.27Z" transform="translate(941.8 -665.29)" style="fill:#ffc74a"/><path d="M1171.48,1014a330.77,330.77,0,0,1,17.56,37.46,262.15,262.15,0,0,0,12-31.33c-6.32-12.21-13.55-24.79-21.63-37.64A233.78,233.78,0,0,1,1171.48,1014Z" transform="translate(941.8 -665.29)" style="fill:#ffc74a"/><path d="M872.86,698.27q-7.11,1.85-14.08,4.1,12.59,7.11,25.72,15.44,8.15-2.4,16.5-4.22Q886.67,705.26,872.86,698.27Z" transform="translate(941.8 -665.29)" style="fill:#ffc74a"/><path d="M1010.5,832.52c12.05,0,22.09,10.57,24.26,24.54V808C1032.59,822,1022.56,832.52,1010.5,832.52Z" transform="translate(941.8 -665.29)" style="fill:#fff"/><path d="M1035.09,805.12q-0.11,1.45-.33,2.86v49.08q0.22,1.41.33,2.86c1.16-15.37,11.72-27.4,24.59-27.4C1046.81,832.52,1036.25,820.48,1035.09,805.12Z" transform="translate(941.8 -665.29)" style="fill:#fff"/><path d="M1017.7,815.13c8.52,8.52,8.15,23.09-.2,34.5l34.7-34.7C1040.79,823.28,1026.23,823.65,1017.7,815.13Z" transform="translate(941.8 -665.29)" style="fill:#fff"/><path d="M1054.46,813.14q-1.1.95-2.26,1.79l-34.7,34.7q-0.84,1.15-1.79,2.26c11.69-10,27.66-11.08,36.76-2C1043.38,840.81,1044.42,824.83,1054.46,813.14Z" transform="translate(941.8 -665.29)" style="fill:#fff"/><path d="M1022.59,1016.95c12.05,0,22.09,10.57,24.26,24.54V992.41C1044.67,1006.38,1034.64,1016.95,1022.59,1016.95Z" transform="translate(941.8 -665.29)" style="fill:#fff"/><path d="M1047.17,989.55q-0.11,1.45-.33,2.86v49.08q0.22,1.41.33,2.86c1.16-15.37,11.72-27.4,24.59-27.4C1058.9,1016.95,1048.33,1004.91,1047.17,989.55Z" transform="translate(941.8 -665.29)" style="fill:#fff"/><path d="M1029.79,999.56c8.52,8.52,8.15,23.09-.2,34.5l34.7-34.7C1052.88,1007.71,1038.31,1008.08,1029.79,999.56Z" transform="translate(941.8 -665.29)" style="fill:#fff"/><path d="M1066.55,997.57q-1.1.95-2.26,1.79l-34.7,34.7q-0.84,1.15-1.79,2.26c11.69-10,27.66-11.08,36.76-2C1055.46,1025.24,1056.5,1009.26,1066.55,997.57Z" transform="translate(941.8 -665.29)" style="fill:#fff"/><path d="M880.1,787.92c11.9,0,21.81,10.43,24,24.23V763.7C901.9,777.49,892,787.92,880.1,787.92Z" transform="translate(941.8 -665.29)" style="fill:#fff"/><path d="M904.37,760.87q-0.11,1.43-.33,2.82v48.45q0.22,1.39.33,2.82c1.15-15.17,11.57-27.05,24.28-27.05C915.95,787.92,905.52,776,904.37,760.87Z" transform="translate(941.8 -665.29)" style="fill:#fff"/><path d="M887.21,770.76c8.42,8.42,8,22.8-.2,34.07l34.26-34.26C910,778.8,895.62,779.17,887.21,770.76Z" transform="translate(941.8 -665.29)" style="fill:#fff"/><path d="M923.5,768.79q-1.09.94-2.23,1.77L887,804.82q-0.83,1.14-1.77,2.23c11.54-9.92,27.31-10.94,36.29-2C912.56,796.11,913.58,780.33,923.5,768.79Z" transform="translate(941.8 -665.29)" style="fill:#fff"/><path d="M910.74,1116.35c6.87,0,12.59,6,13.83,14v-28C923.33,1110.33,917.62,1116.35,910.74,1116.35Z" transform="translate(941.8 -665.29)" style="fill:#fff"/><path d="M924.76,1100.73q-0.06.83-.19,1.63v28q0.12,0.8.19,1.63c0.66-8.76,6.68-15.62,14-15.62C931.44,1116.35,925.42,1109.49,924.76,1100.73Z" transform="translate(941.8 -665.29)" style="fill:#fff"/><path d="M914.85,1106.44c4.86,4.86,4.64,13.16-.11,19.67l19.78-19.78C928,1111.09,919.71,1111.3,914.85,1106.44Z" transform="translate(941.8 -665.29)" style="fill:#fff"/><path d="M935.81,1105.31q-0.63.54-1.29,1l-19.78,19.78q-0.48.66-1,1.29c6.66-5.73,15.77-6.32,21-1.13C929.49,1121.08,930.08,1112,935.81,1105.31Z" transform="translate(941.8 -665.29)" style="fill:#fff"/><polygon points="1709.22 218.98 1778.18 242.96 1837.03 199.74 1835.54 272.74 1894.83 315.36 1824.94 336.49 1802.73 406.05 1761.03 346.11 1688.02 346.49 1732.13 288.31 1709.22 218.98" style="fill:#fff"/></svg>