<svg id="Calque_1" data-name="Calque 1" xmlns="http://www.w3.org/2000/svg" viewBox="0 0 436.3 436.3"><title>500px_grid</title><g style="opacity:1"><line x1="436.2" y1="0.1" x2="436.2" y2="436.2" style="fill:none;stroke:#fff;stroke-miterlimit:10;stroke-width:0.25px"/><line x1="427.7" y1="0.1" x2="427.7" y2="436.2" style="fill:none;stroke:#fff;stroke-miterlimit:10;stroke-width:0.25px"/><line x1="419.1" y1="0.1" x2="419.1" y2="436.2" style="fill:none;stroke:#fff;stroke-miterlimit:10;stroke-width:0.25px"/><line x1="410.6" y1="0.1" x2="410.6" y2="436.2" style="fill:none;stroke:#fff;stroke-miterlimit:10;stroke-width:0.25px"/><line x1="402" y1="0.1" x2="402" y2="436.2" style="fill:none;stroke:#fff;stroke-miterlimit:10;stroke-width:0.25px"/><line x1="393.5" y1="0.1" x2="393.5" y2="436.2" style="fill:none;stroke:#fff;stroke-miterlimit:10;stroke-width:0.25px"/><line x1="384.9" y1="0.1" x2="384.9" y2="436.2" style="fill:none;stroke:#fff;stroke-miterlimit:10;stroke-width:0.25px"/><line x1="376.4" y1="0.1" x2="376.4" y2="436.2" style="fill:none;stroke:#fff;stroke-miterlimit:10;stroke-width:0.25px"/><line x1="367.8" y1="0.1" x2="367.8" y2="436.2" style="fill:none;stroke:#fff;stroke-miterlimit:10;stroke-width:0.25px"/><line x1="359.3" y1="0.1" x2="359.3" y2="436.2" style="fill:none;stroke:#fff;stroke-miterlimit:10;stroke-width:0.25px"/><line x1="350.7" y1="0.1" x2="350.7" y2="436.2" style="fill:none;stroke:#fff;stroke-miterlimit:10;stroke-width:0.25px"/><line x1="342.2" y1="0.1" x2="342.2" y2="436.2" style="fill:none;stroke:#fff;stroke-miterlimit:10;stroke-width:0.25px"/><line x1="333.6" y1="0.1" x2="333.6" y2="436.2" style="fill:none;stroke:#fff;stroke-miterlimit:10;stroke-width:0.25px"/><line x1="325.1" y1="0.1" x2="325.1" y2="436.2" style="fill:none;stroke:#fff;stroke-miterlimit:10;stroke-width:0.25px"/><line x1="316.5" y1="0.1" x2="316.5" y2="436.2" style="fill:none;stroke:#fff;stroke-miterlimit:10;stroke-width:0.25px"/><line x1="308" y1="0.1" x2="308" y2="436.2" style="fill:none;stroke:#fff;stroke-miterlimit:10;stroke-width:0.25px"/><line x1="299.4" y1="0.1" x2="299.4" y2="436.2" style="fill:none;stroke:#fff;stroke-miterlimit:10;stroke-width:0.25px"/><line x1="290.9" y1="0.1" x2="290.9" y2="436.2" style="fill:none;stroke:#fff;stroke-miterlimit:10;stroke-width:0.25px"/><line x1="282.3" y1="0.1" x2="282.3" y2="436.2" style="fill:none;stroke:#fff;stroke-miterlimit:10;stroke-width:0.25px"/><line x1="273.8" y1="0.1" x2="273.8" y2="436.2" style="fill:none;stroke:#fff;stroke-miterlimit:10;stroke-width:0.25px"/><line x1="265.2" y1="0.1" x2="265.2" y2="436.2" style="fill:none;stroke:#fff;stroke-miterlimit:10;stroke-width:0.25px"/><line x1="256.6" y1="0.1" x2="256.6" y2="436.2" style="fill:none;stroke:#fff;stroke-miterlimit:10;stroke-width:0.25px"/><line x1="248.1" y1="0.1" x2="248.1" y2="436.2" style="fill:none;stroke:#fff;stroke-miterlimit:10;stroke-width:0.25px"/><line x1="239.5" y1="0.1" x2="239.5" y2="436.2" style="fill:none;stroke:#fff;stroke-miterlimit:10;stroke-width:0.25px"/><line x1="231" y1="0.1" x2="231" y2="436.2" style="fill:none;stroke:#fff;stroke-miterlimit:10;stroke-width:0.25px"/><line x1="222.4" y1="0.1" x2="222.4" y2="436.2" style="fill:none;stroke:#fff;stroke-miterlimit:10;stroke-width:0.25px"/><line x1="213.9" y1="0.1" x2="213.9" y2="436.2" style="fill:none;stroke:#fff;stroke-miterlimit:10;stroke-width:0.25px"/><line x1="205.3" y1="0.1" x2="205.3" y2="436.2" style="fill:none;stroke:#fff;stroke-miterlimit:10;stroke-width:0.25px"/><line x1="196.8" y1="0.1" x2="196.8" y2="436.2" style="fill:none;stroke:#fff;stroke-miterlimit:10;stroke-width:0.25px"/><line x1="188.2" y1="0.1" x2="188.2" y2="436.2" style="fill:none;stroke:#fff;stroke-miterlimit:10;stroke-width:0.25px"/><line x1="179.7" y1="0.1" x2="179.7" y2="436.2" style="fill:none;stroke:#fff;stroke-miterlimit:10;stroke-width:0.25px"/><line x1="171.1" y1="0.1" x2="171.1" y2="436.2" style="fill:none;stroke:#fff;stroke-miterlimit:10;stroke-width:0.25px"/><line x1="162.6" y1="0.1" x2="162.6" y2="436.2" style="fill:none;stroke:#fff;stroke-miterlimit:10;stroke-width:0.25px"/><line x1="154" y1="0.1" x2="154" y2="436.2" style="fill:none;stroke:#fff;stroke-miterlimit:10;stroke-width:0.25px"/><line x1="145.5" y1="0.1" x2="145.5" y2="436.2" style="fill:none;stroke:#fff;stroke-miterlimit:10;stroke-width:0.25px"/><line x1="136.9" y1="0.1" x2="136.9" y2="436.2" style="fill:none;stroke:#fff;stroke-miterlimit:10;stroke-width:0.25px"/><line x1="128.4" y1="0.1" x2="128.4" y2="436.2" style="fill:none;stroke:#fff;stroke-miterlimit:10;stroke-width:0.25px"/><line x1="119.8" y1="0.1" x2="119.8" y2="436.2" style="fill:none;stroke:#fff;stroke-miterlimit:10;stroke-width:0.25px"/><line x1="111.3" y1="0.1" x2="111.3" y2="436.2" style="fill:none;stroke:#fff;stroke-miterlimit:10;stroke-width:0.25px"/><line x1="102.7" y1="0.1" x2="102.7" y2="436.2" style="fill:none;stroke:#fff;stroke-miterlimit:10;stroke-width:0.25px"/><line x1="94.2" y1="0.1" x2="94.2" y2="436.2" style="fill:none;stroke:#fff;stroke-miterlimit:10;stroke-width:0.25px"/><line x1="85.6" y1="0.1" x2="85.6" y2="436.2" style="fill:none;stroke:#fff;stroke-miterlimit:10;stroke-width:0.25px"/><line x1="77.1" y1="0.1" x2="77.1" y2="436.2" style="fill:none;stroke:#fff;stroke-miterlimit:10;stroke-width:0.25px"/><line x1="68.5" y1="0.1" x2="68.5" y2="436.2" style="fill:none;stroke:#fff;stroke-miterlimit:10;stroke-width:0.25px"/><line x1="60" y1="0.1" x2="60" y2="436.2" style="fill:none;stroke:#fff;stroke-miterlimit:10;stroke-width:0.25px"/><line x1="51.4" y1="0.1" x2="51.4" y2="436.2" style="fill:none;stroke:#fff;stroke-miterlimit:10;stroke-width:0.25px"/><line x1="42.9" y1="0.1" x2="42.9" y2="436.2" style="fill:none;stroke:#fff;stroke-miterlimit:10;stroke-width:0.25px"/><line x1="34.3" y1="0.1" x2="34.3" y2="436.2" style="fill:none;stroke:#fff;stroke-miterlimit:10;stroke-width:0.25px"/><line x1="25.8" y1="0.1" x2="25.8" y2="436.2" style="fill:none;stroke:#fff;stroke-miterlimit:10;stroke-width:0.25px"/><line x1="17.2" y1="0.1" x2="17.2" y2="436.2" style="fill:none;stroke:#fff;stroke-miterlimit:10;stroke-width:0.25px"/><line x1="8.7" y1="0.1" x2="8.7" y2="436.2" style="fill:none;stroke:#fff;stroke-miterlimit:10;stroke-width:0.25px"/><line x1="0.1" y1="0.1" x2="0.1" y2="436.2" style="fill:none;stroke:#fff;stroke-miterlimit:10;stroke-width:0.25px"/></g><g style="opacity:1"><line x1="436.2" y1="436.2" x2="0.1" y2="436.2" style="fill:none;stroke:#fff;stroke-miterlimit:10;stroke-width:0.25px"/><line x1="436.2" y1="427.7" x2="0.1" y2="427.7" style="fill:none;stroke:#fff;stroke-miterlimit:10;stroke-width:0.25px"/><line x1="436.2" y1="419.1" x2="0.1" y2="419.1" style="fill:none;stroke:#fff;stroke-miterlimit:10;stroke-width:0.25px"/><line x1="436.2" y1="410.6" x2="0.1" y2="410.6" style="fill:none;stroke:#fff;stroke-miterlimit:10;stroke-width:0.25px"/><line x1="436.2" y1="402" x2="0.1" y2="402" style="fill:none;stroke:#fff;stroke-miterlimit:10;stroke-width:0.25px"/><line x1="436.2" y1="393.5" x2="0.1" y2="393.5" style="fill:none;stroke:#fff;stroke-miterlimit:10;stroke-width:0.25px"/><line x1="436.2" y1="384.9" x2="0.1" y2="384.9" style="fill:none;stroke:#fff;stroke-miterlimit:10;stroke-width:0.25px"/><line x1="436.2" y1="376.4" x2="0.1" y2="376.4" style="fill:none;stroke:#fff;stroke-miterlimit:10;stroke-width:0.25px"/><line x1="436.2" y1="367.8" x2="0.1" y2="367.8" style="fill:none;stroke:#fff;stroke-miterlimit:10;stroke-width:0.25px"/><line x1="436.2" y1="359.3" x2="0.1" y2="359.3" style="fill:none;stroke:#fff;stroke-miterlimit:10;stroke-width:0.25px"/><line x1="436.2" y1="350.7" x2="0.1" y2="350.7" style="fill:none;stroke:#fff;stroke-miterlimit:10;stroke-width:0.25px"/><line x1="436.2" y1="342.2" x2="0.1" y2="342.2" style="fill:none;stroke:#fff;stroke-miterlimit:10;stroke-width:0.25px"/><line x1="436.2" y1="333.6" x2="0.1" y2="333.6" style="fill:none;stroke:#fff;stroke-miterlimit:10;stroke-width:0.25px"/><line x1="436.2" y1="325.1" x2="0.1" y2="325.1" style="fill:none;stroke:#fff;stroke-miterlimit:10;stroke-width:0.25px"/><line x1="436.2" y1="316.5" x2="0.1" y2="316.5" style="fill:none;stroke:#fff;stroke-miterlimit:10;stroke-width:0.25px"/><line x1="436.2" y1="308" x2="0.1" y2="308" style="fill:none;stroke:#fff;stroke-miterlimit:10;stroke-width:0.25px"/><line x1="436.2" y1="299.4" x2="0.1" y2="299.4" style="fill:none;stroke:#fff;stroke-miterlimit:10;stroke-width:0.25px"/><line x1="436.2" y1="290.9" x2="0.1" y2="290.9" style="fill:none;stroke:#fff;stroke-miterlimit:10;stroke-width:0.25px"/><line x1="436.2" y1="282.3" x2="0.1" y2="282.3" style="fill:none;stroke:#fff;stroke-miterlimit:10;stroke-width:0.25px"/><line x1="436.2" y1="273.8" x2="0.1" y2="273.8" style="fill:none;stroke:#fff;stroke-miterlimit:10;stroke-width:0.25px"/><line x1="436.2" y1="265.2" x2="0.1" y2="265.2" style="fill:none;stroke:#fff;stroke-miterlimit:10;stroke-width:0.25px"/><line x1="436.2" y1="256.6" x2="0.1" y2="256.6" style="fill:none;stroke:#fff;stroke-miterlimit:10;stroke-width:0.25px"/><line x1="436.2" y1="248.1" x2="0.1" y2="248.1" style="fill:none;stroke:#fff;stroke-miterlimit:10;stroke-width:0.25px"/><line x1="436.2" y1="239.5" x2="0.1" y2="239.5" style="fill:none;stroke:#fff;stroke-miterlimit:10;stroke-width:0.25px"/><line x1="436.2" y1="231" x2="0.1" y2="231" style="fill:none;stroke:#fff;stroke-miterlimit:10;stroke-width:0.25px"/><line x1="436.2" y1="222.4" x2="0.1" y2="222.4" style="fill:none;stroke:#fff;stroke-miterlimit:10;stroke-width:0.25px"/><line x1="436.2" y1="213.9" x2="0.1" y2="213.9" style="fill:none;stroke:#fff;stroke-miterlimit:10;stroke-width:0.25px"/><line x1="436.2" y1="205.3" x2="0.1" y2="205.3" style="fill:none;stroke:#fff;stroke-miterlimit:10;stroke-width:0.25px"/><line x1="436.2" y1="196.8" x2="0.1" y2="196.8" style="fill:none;stroke:#fff;stroke-miterlimit:10;stroke-width:0.25px"/><line x1="436.2" y1="188.2" x2="0.1" y2="188.2" style="fill:none;stroke:#fff;stroke-miterlimit:10;stroke-width:0.25px"/><line x1="436.2" y1="179.7" x2="0.1" y2="179.7" style="fill:none;stroke:#fff;stroke-miterlimit:10;stroke-width:0.25px"/><line x1="436.2" y1="171.1" x2="0.1" y2="171.1" style="fill:none;stroke:#fff;stroke-miterlimit:10;stroke-width:0.25px"/><line x1="436.2" y1="162.6" x2="0.1" y2="162.6" style="fill:none;stroke:#fff;stroke-miterlimit:10;stroke-width:0.25px"/><line x1="436.2" y1="154" x2="0.1" y2="154" style="fill:none;stroke:#fff;stroke-miterlimit:10;stroke-width:0.25px"/><line x1="436.2" y1="145.5" x2="0.1" y2="145.5" style="fill:none;stroke:#fff;stroke-miterlimit:10;stroke-width:0.25px"/><line x1="436.2" y1="136.9" x2="0.1" y2="136.9" style="fill:none;stroke:#fff;stroke-miterlimit:10;stroke-width:0.25px"/><line x1="436.2" y1="128.4" x2="0.1" y2="128.4" style="fill:none;stroke:#fff;stroke-miterlimit:10;stroke-width:0.25px"/><line x1="436.2" y1="119.8" x2="0.1" y2="119.8" style="fill:none;stroke:#fff;stroke-miterlimit:10;stroke-width:0.25px"/><line x1="436.2" y1="111.3" x2="0.1" y2="111.3" style="fill:none;stroke:#fff;stroke-miterlimit:10;stroke-width:0.25px"/><line x1="436.2" y1="102.7" x2="0.1" y2="102.7" style="fill:none;stroke:#fff;stroke-miterlimit:10;stroke-width:0.25px"/><line x1="436.2" y1="94.2" x2="0.1" y2="94.2" style="fill:none;stroke:#fff;stroke-miterlimit:10;stroke-width:0.25px"/><line x1="436.2" y1="85.6" x2="0.1" y2="85.6" style="fill:none;stroke:#fff;stroke-miterlimit:10;stroke-width:0.25px"/><line x1="436.2" y1="77.1" x2="0.1" y2="77.1" style="fill:none;stroke:#fff;stroke-miterlimit:10;stroke-width:0.25px"/><line x1="436.2" y1="68.5" x2="0.1" y2="68.5" style="fill:none;stroke:#fff;stroke-miterlimit:10;stroke-width:0.25px"/><line x1="436.2" y1="60" x2="0.1" y2="60" style="fill:none;stroke:#fff;stroke-miterlimit:10;stroke-width:0.25px"/><line x1="436.2" y1="51.4" x2="0.1" y2="51.4" style="fill:none;stroke:#fff;stroke-miterlimit:10;stroke-width:0.25px"/><line x1="436.2" y1="42.9" x2="0.1" y2="42.9" style="fill:none;stroke:#fff;stroke-miterlimit:10;stroke-width:0.25px"/><line x1="436.2" y1="34.3" x2="0.1" y2="34.3" style="fill:none;stroke:#fff;stroke-miterlimit:10;stroke-width:0.25px"/><line x1="436.2" y1="25.8" x2="0.1" y2="25.8" style="fill:none;stroke:#fff;stroke-miterlimit:10;stroke-width:0.25px"/><line x1="436.2" y1="17.2" x2="0.1" y2="17.2" style="fill:none;stroke:#fff;stroke-miterlimit:10;stroke-width:0.25px"/><line x1="436.2" y1="8.7" x2="0.1" y2="8.7" style="fill:none;stroke:#fff;stroke-miterlimit:10;stroke-width:0.25px"/><line x1="436.2" y1="0.1" x2="0.1" y2="0.1" style="fill:none;stroke:#fff;stroke-miterlimit:10;stroke-width:0.25px"/></g></svg>