<svg id="Calque_2" data-name="Calque 2" xmlns="http://www.w3.org/2000/svg" viewBox="0 0 501 501"><title>500px_grid</title><line x1="0.5" y1="0.5" x2="500.5" y2="0.5" style="fill:none;stroke:#1d1d1b;stroke-miterlimit:10"/><line x1="0.5" y1="490.7" x2="500.5" y2="490.7" style="fill:none;stroke:#1d1d1b;stroke-miterlimit:10"/><line x1="0.5" y1="480.9" x2="500.5" y2="480.9" style="fill:none;stroke:#1d1d1b;stroke-miterlimit:10"/><line x1="0.5" y1="471.1" x2="500.5" y2="471.1" style="fill:none;stroke:#1d1d1b;stroke-miterlimit:10"/><line x1="0.5" y1="461.3" x2="500.5" y2="461.3" style="fill:none;stroke:#1d1d1b;stroke-miterlimit:10"/><line x1="0.5" y1="451.5" x2="500.5" y2="451.5" style="fill:none;stroke:#1d1d1b;stroke-miterlimit:10"/><line x1="0.5" y1="441.7" x2="500.5" y2="441.7" style="fill:none;stroke:#1d1d1b;stroke-miterlimit:10"/><line x1="0.5" y1="431.9" x2="500.5" y2="431.9" style="fill:none;stroke:#1d1d1b;stroke-miterlimit:10"/><line x1="0.5" y1="422.1" x2="500.5" y2="422.1" style="fill:none;stroke:#1d1d1b;stroke-miterlimit:10"/><line x1="0.5" y1="412.3" x2="500.5" y2="412.3" style="fill:none;stroke:#1d1d1b;stroke-miterlimit:10"/><line x1="0.5" y1="402.5" x2="500.5" y2="402.5" style="fill:none;stroke:#1d1d1b;stroke-miterlimit:10"/><line x1="0.5" y1="392.7" x2="500.5" y2="392.7" style="fill:none;stroke:#1d1d1b;stroke-miterlimit:10"/><line x1="0.5" y1="382.9" x2="500.5" y2="382.9" style="fill:none;stroke:#1d1d1b;stroke-miterlimit:10"/><line x1="0.5" y1="373" x2="500.5" y2="373" style="fill:none;stroke:#1d1d1b;stroke-miterlimit:10"/><line x1="0.5" y1="363.2" x2="500.5" y2="363.2" style="fill:none;stroke:#1d1d1b;stroke-miterlimit:10"/><line x1="0.5" y1="353.4" x2="500.5" y2="353.4" style="fill:none;stroke:#1d1d1b;stroke-miterlimit:10"/><line x1="0.5" y1="343.6" x2="500.5" y2="343.6" style="fill:none;stroke:#1d1d1b;stroke-miterlimit:10"/><line x1="0.5" y1="333.8" x2="500.5" y2="333.8" style="fill:none;stroke:#1d1d1b;stroke-miterlimit:10"/><line x1="0.5" y1="324" x2="500.5" y2="324" style="fill:none;stroke:#1d1d1b;stroke-miterlimit:10"/><line x1="0.5" y1="314.2" x2="500.5" y2="314.2" style="fill:none;stroke:#1d1d1b;stroke-miterlimit:10"/><line x1="0.5" y1="304.4" x2="500.5" y2="304.4" style="fill:none;stroke:#1d1d1b;stroke-miterlimit:10"/><line x1="0.5" y1="294.6" x2="500.5" y2="294.6" style="fill:none;stroke:#1d1d1b;stroke-miterlimit:10"/><line x1="0.5" y1="284.8" x2="500.5" y2="284.8" style="fill:none;stroke:#1d1d1b;stroke-miterlimit:10"/><line x1="0.5" y1="275" x2="500.5" y2="275" style="fill:none;stroke:#1d1d1b;stroke-miterlimit:10"/><line x1="0.5" y1="265.2" x2="500.5" y2="265.2" style="fill:none;stroke:#1d1d1b;stroke-miterlimit:10"/><line x1="0.5" y1="255.4" x2="500.5" y2="255.4" style="fill:none;stroke:#1d1d1b;stroke-miterlimit:10"/><line x1="0.5" y1="245.6" x2="500.5" y2="245.6" style="fill:none;stroke:#1d1d1b;stroke-miterlimit:10"/><line x1="0.5" y1="235.8" x2="500.5" y2="235.8" style="fill:none;stroke:#1d1d1b;stroke-miterlimit:10"/><line x1="0.5" y1="226" x2="500.5" y2="226" style="fill:none;stroke:#1d1d1b;stroke-miterlimit:10"/><line x1="0.5" y1="216.2" x2="500.5" y2="216.2" style="fill:none;stroke:#1d1d1b;stroke-miterlimit:10"/><line x1="0.5" y1="206.4" x2="500.5" y2="206.4" style="fill:none;stroke:#1d1d1b;stroke-miterlimit:10"/><line x1="0.5" y1="196.6" x2="500.5" y2="196.6" style="fill:none;stroke:#1d1d1b;stroke-miterlimit:10"/><line x1="0.5" y1="186.8" x2="500.5" y2="186.8" style="fill:none;stroke:#1d1d1b;stroke-miterlimit:10"/><line x1="0.5" y1="177" x2="500.5" y2="177" style="fill:none;stroke:#1d1d1b;stroke-miterlimit:10"/><line x1="0.5" y1="167.2" x2="500.5" y2="167.2" style="fill:none;stroke:#1d1d1b;stroke-miterlimit:10"/><line x1="0.5" y1="157.4" x2="500.5" y2="157.4" style="fill:none;stroke:#1d1d1b;stroke-miterlimit:10"/><line x1="0.5" y1="147.6" x2="500.5" y2="147.6" style="fill:none;stroke:#1d1d1b;stroke-miterlimit:10"/><line x1="0.5" y1="137.8" x2="500.5" y2="137.8" style="fill:none;stroke:#1d1d1b;stroke-miterlimit:10"/><line x1="0.5" y1="128" x2="500.5" y2="128" style="fill:none;stroke:#1d1d1b;stroke-miterlimit:10"/><line x1="0.5" y1="118.1" x2="500.5" y2="118.1" style="fill:none;stroke:#1d1d1b;stroke-miterlimit:10"/><line x1="0.5" y1="108.3" x2="500.5" y2="108.3" style="fill:none;stroke:#1d1d1b;stroke-miterlimit:10"/><line x1="0.5" y1="98.5" x2="500.5" y2="98.5" style="fill:none;stroke:#1d1d1b;stroke-miterlimit:10"/><line x1="0.5" y1="88.7" x2="500.5" y2="88.7" style="fill:none;stroke:#1d1d1b;stroke-miterlimit:10"/><line x1="0.5" y1="78.9" x2="500.5" y2="78.9" style="fill:none;stroke:#1d1d1b;stroke-miterlimit:10"/><line x1="0.5" y1="69.1" x2="500.5" y2="69.1" style="fill:none;stroke:#1d1d1b;stroke-miterlimit:10"/><line x1="0.5" y1="59.3" x2="500.5" y2="59.3" style="fill:none;stroke:#1d1d1b;stroke-miterlimit:10"/><line x1="0.5" y1="49.5" x2="500.5" y2="49.5" style="fill:none;stroke:#1d1d1b;stroke-miterlimit:10"/><line x1="0.5" y1="39.7" x2="500.5" y2="39.7" style="fill:none;stroke:#1d1d1b;stroke-miterlimit:10"/><line x1="0.5" y1="29.9" x2="500.5" y2="29.9" style="fill:none;stroke:#1d1d1b;stroke-miterlimit:10"/><line x1="0.5" y1="20.1" x2="500.5" y2="20.1" style="fill:none;stroke:#1d1d1b;stroke-miterlimit:10"/><line x1="0.5" y1="10.3" x2="500.5" y2="10.3" style="fill:none;stroke:#1d1d1b;stroke-miterlimit:10"/><line x1="0.5" y1="500.5" x2="500.5" y2="500.5" style="fill:none;stroke:#1d1d1b;stroke-miterlimit:10"/><line x1="0.5" y1="0.5" x2="0.5" y2="500.5" style="fill:none;stroke:#1d1d1b;stroke-miterlimit:10"/><line x1="490.7" y1="0.5" x2="490.7" y2="500.5" style="fill:none;stroke:#1d1d1b;stroke-miterlimit:10"/><line x1="480.9" y1="0.5" x2="480.9" y2="500.5" style="fill:none;stroke:#1d1d1b;stroke-miterlimit:10"/><line x1="471.1" y1="0.5" x2="471.1" y2="500.5" style="fill:none;stroke:#1d1d1b;stroke-miterlimit:10"/><line x1="461.3" y1="0.5" x2="461.3" y2="500.5" style="fill:none;stroke:#1d1d1b;stroke-miterlimit:10"/><line x1="451.5" y1="0.5" x2="451.5" y2="500.5" style="fill:none;stroke:#1d1d1b;stroke-miterlimit:10"/><line x1="441.7" y1="0.5" x2="441.7" y2="500.5" style="fill:none;stroke:#1d1d1b;stroke-miterlimit:10"/><line x1="431.9" y1="0.5" x2="431.9" y2="500.5" style="fill:none;stroke:#1d1d1b;stroke-miterlimit:10"/><line x1="422.1" y1="0.5" x2="422.1" y2="500.5" style="fill:none;stroke:#1d1d1b;stroke-miterlimit:10"/><line x1="412.3" y1="0.5" x2="412.3" y2="500.5" style="fill:none;stroke:#1d1d1b;stroke-miterlimit:10"/><line x1="402.5" y1="0.5" x2="402.5" y2="500.5" style="fill:none;stroke:#1d1d1b;stroke-miterlimit:10"/><line x1="392.7" y1="0.5" x2="392.7" y2="500.5" style="fill:none;stroke:#1d1d1b;stroke-miterlimit:10"/><line x1="382.9" y1="0.5" x2="382.9" y2="500.5" style="fill:none;stroke:#1d1d1b;stroke-miterlimit:10"/><line x1="373" y1="0.5" x2="373" y2="500.5" style="fill:none;stroke:#1d1d1b;stroke-miterlimit:10"/><line x1="363.2" y1="0.5" x2="363.2" y2="500.5" style="fill:none;stroke:#1d1d1b;stroke-miterlimit:10"/><line x1="353.4" y1="0.5" x2="353.4" y2="500.5" style="fill:none;stroke:#1d1d1b;stroke-miterlimit:10"/><line x1="343.6" y1="0.5" x2="343.6" y2="500.5" style="fill:none;stroke:#1d1d1b;stroke-miterlimit:10"/><line x1="333.8" y1="0.5" x2="333.8" y2="500.5" style="fill:none;stroke:#1d1d1b;stroke-miterlimit:10"/><line x1="324" y1="0.5" x2="324" y2="500.5" style="fill:none;stroke:#1d1d1b;stroke-miterlimit:10"/><line x1="314.2" y1="0.5" x2="314.2" y2="500.5" style="fill:none;stroke:#1d1d1b;stroke-miterlimit:10"/><line x1="304.4" y1="0.5" x2="304.4" y2="500.5" style="fill:none;stroke:#1d1d1b;stroke-miterlimit:10"/><line x1="294.6" y1="0.5" x2="294.6" y2="500.5" style="fill:none;stroke:#1d1d1b;stroke-miterlimit:10"/><line x1="284.8" y1="0.5" x2="284.8" y2="500.5" style="fill:none;stroke:#1d1d1b;stroke-miterlimit:10"/><line x1="275" y1="0.5" x2="275" y2="500.5" style="fill:none;stroke:#1d1d1b;stroke-miterlimit:10"/><line x1="265.2" y1="0.5" x2="265.2" y2="500.5" style="fill:none;stroke:#1d1d1b;stroke-miterlimit:10"/><line x1="255.4" y1="0.5" x2="255.4" y2="500.5" style="fill:none;stroke:#1d1d1b;stroke-miterlimit:10"/><line x1="245.6" y1="0.5" x2="245.6" y2="500.5" style="fill:none;stroke:#1d1d1b;stroke-miterlimit:10"/><line x1="235.8" y1="0.5" x2="235.8" y2="500.5" style="fill:none;stroke:#1d1d1b;stroke-miterlimit:10"/><line x1="226" y1="0.5" x2="226" y2="500.5" style="fill:none;stroke:#1d1d1b;stroke-miterlimit:10"/><line x1="216.2" y1="0.5" x2="216.2" y2="500.5" style="fill:none;stroke:#1d1d1b;stroke-miterlimit:10"/><line x1="206.4" y1="0.5" x2="206.4" y2="500.5" style="fill:none;stroke:#1d1d1b;stroke-miterlimit:10"/><line x1="196.6" y1="0.5" x2="196.6" y2="500.5" style="fill:none;stroke:#1d1d1b;stroke-miterlimit:10"/><line x1="186.8" y1="0.5" x2="186.8" y2="500.5" style="fill:none;stroke:#1d1d1b;stroke-miterlimit:10"/><line x1="177" y1="0.5" x2="177" y2="500.5" style="fill:none;stroke:#1d1d1b;stroke-miterlimit:10"/><line x1="167.2" y1="0.5" x2="167.2" y2="500.5" style="fill:none;stroke:#1d1d1b;stroke-miterlimit:10"/><line x1="157.4" y1="0.5" x2="157.4" y2="500.5" style="fill:none;stroke:#1d1d1b;stroke-miterlimit:10"/><line x1="147.6" y1="0.5" x2="147.6" y2="500.5" style="fill:none;stroke:#1d1d1b;stroke-miterlimit:10"/><line x1="137.8" y1="0.5" x2="137.8" y2="500.5" style="fill:none;stroke:#1d1d1b;stroke-miterlimit:10"/><line x1="128" y1="0.5" x2="128" y2="500.5" style="fill:none;stroke:#1d1d1b;stroke-miterlimit:10"/><line x1="118.1" y1="0.5" x2="118.1" y2="500.5" style="fill:none;stroke:#1d1d1b;stroke-miterlimit:10"/><line x1="108.3" y1="0.5" x2="108.3" y2="500.5" style="fill:none;stroke:#1d1d1b;stroke-miterlimit:10"/><line x1="98.5" y1="0.5" x2="98.5" y2="500.5" style="fill:none;stroke:#1d1d1b;stroke-miterlimit:10"/><line x1="88.7" y1="0.5" x2="88.7" y2="500.5" style="fill:none;stroke:#1d1d1b;stroke-miterlimit:10"/><line x1="78.9" y1="0.5" x2="78.9" y2="500.5" style="fill:none;stroke:#1d1d1b;stroke-miterlimit:10"/><line x1="69.1" y1="0.5" x2="69.1" y2="500.5" style="fill:none;stroke:#1d1d1b;stroke-miterlimit:10"/><line x1="59.3" y1="0.5" x2="59.3" y2="500.5" style="fill:none;stroke:#1d1d1b;stroke-miterlimit:10"/><line x1="49.5" y1="0.5" x2="49.5" y2="500.5" style="fill:none;stroke:#1d1d1b;stroke-miterlimit:10"/><line x1="39.7" y1="0.5" x2="39.7" y2="500.5" style="fill:none;stroke:#1d1d1b;stroke-miterlimit:10"/><line x1="29.9" y1="0.5" x2="29.9" y2="500.5" style="fill:none;stroke:#1d1d1b;stroke-miterlimit:10"/><line x1="20.1" y1="0.5" x2="20.1" y2="500.5" style="fill:none;stroke:#1d1d1b;stroke-miterlimit:10"/><line x1="10.3" y1="0.5" x2="10.3" y2="500.5" style="fill:none;stroke:#1d1d1b;stroke-miterlimit:10"/><line x1="500.5" y1="0.5" x2="500.5" y2="500.5" style="fill:none;stroke:#1d1d1b;stroke-miterlimit:10"/></svg>