<svg id="Calque_1" data-name="Calque 1" xmlns="http://www.w3.org/2000/svg" viewBox="0 0 74 74"><title>img_hstack</title><path d="M-7.3,31.2H-62.4V23.9L-46.3,2.2l18.4,18.1h4.6L-7.3,9.4V31.2Z" transform="translate(71.8 34.8)" style="fill:#fff"/><path d="M-17.2.7c1.4-2.4,8.8-14.6,9.9-16.9C-9.6-15-21.9-7.1-24.2-5.7s-2.3,1.2-2.9,2.9A5.6,5.6,0,0,0-26,2.5a5.6,5.6,0,0,0,5.3,1.2A6.3,6.3,0,0,0-17.2.7Z" transform="translate(71.8 34.8)" style="fill:#fff"/><path d="M-58.4-27.1h1.9l-5,12.1h-1.9Z" transform="translate(71.8 34.8)" style="fill:#fff"/><path d="M-42.8-25.5l-1,2a2.6,2.6,0,0,0-1.7-.7l-0.8.2a0.7,0.7,0,0,0-.3.6,0.6,0.6,0,0,0,.2.5l0.4,0.3,0.5,0.2,0.7,0.2a4.3,4.3,0,0,1,1.8,1,2.3,2.3,0,0,1,.6,1.7,3.3,3.3,0,0,1-1,2.7,4.2,4.2,0,0,1-2.8.9,6,6,0,0,1-3.5-1.1l1.1-2.1a3.5,3.5,0,0,0,2.3,1l0.9-.3a0.8,0.8,0,0,0,.4-0.7q0-.7-1.2-1h-0.3l-1.1-.4-0.8-.5a1.7,1.7,0,0,1-.6-0.8,3.4,3.4,0,0,1-.2-1.2,3.2,3.2,0,0,1,1-2.4,3.4,3.4,0,0,1,2.5-.9l1.6,0.2Z" transform="translate(71.8 34.8)" style="fill:#fff"/><path d="M-38.6-21v4.8H-41V-21h-0.8v-2H-41v-2h2.4v2h1.4v2h-1.4Z" transform="translate(71.8 34.8)" style="fill:#fff"/><path d="M-29.2-22.9v6.7h-2.4v-0.7h0a1.9,1.9,0,0,1-.9.7l-1.2.2A3.2,3.2,0,0,1-36-17a3.6,3.6,0,0,1-1-2.5,3.6,3.6,0,0,1,1-2.5,3.1,3.1,0,0,1,2.4-1,2.6,2.6,0,0,1,2.1.9v-0.7h2.4Zm-2.7,2.3a1.5,1.5,0,0,0-1.1-.4,1.5,1.5,0,0,0-1.1.4,1.5,1.5,0,0,0-.4,1.1,1.5,1.5,0,0,0,.4,1.1A1.5,1.5,0,0,0-33-18a1.5,1.5,0,0,0,1.1-.4,1.5,1.5,0,0,0,.4-1.1A1.5,1.5,0,0,0-31.9-20.6Z" transform="translate(71.8 34.8)" style="fill:#fff"/><path d="M-22.7-22.8v2a2.1,2.1,0,0,0-1.2-.5,1.6,1.6,0,0,0-1.2.5,1.6,1.6,0,0,0-.5,1.2,1.6,1.6,0,0,0,.5,1.2,1.6,1.6,0,0,0,1.2.5,1.7,1.7,0,0,0,1.2-.5v2a3.7,3.7,0,0,1-1.7.4A3.6,3.6,0,0,1-27-17a3.3,3.3,0,0,1-1.1-2.5A3.5,3.5,0,0,1-27-22.1a3.7,3.7,0,0,1,2.7-1A3.2,3.2,0,0,1-22.7-22.8Z" transform="translate(71.8 34.8)" style="fill:#fff"/><path d="M-18.9-27.1v6.6l2.5-2.4h3.3l-3.4,3.1,3.6,3.6h-3.3l-2.6-2.7v2.7h-2.4V-27.1h2.4Z" transform="translate(71.8 34.8)" style="fill:#fff"/><path d="M-63.9-25.6h-1v-1.5h2.8v6.9h-1.8v-5.4Z" transform="translate(71.8 34.8)" style="fill:#fff"/><path d="M-55.4-16.6h2.3v1.5h-5.6l2.8-3.1a2.6,2.6,0,0,0,.8-1.7,1,1,0,0,0-.2-0.6,0.7,0.7,0,0,0-.6-0.3,0.7,0.7,0,0,0-.6.2,0.9,0.9,0,0,0-.2.6v0.3h-2a2.8,2.8,0,0,1,.8-1.9,2.6,2.6,0,0,1,1.9-.7,2.8,2.8,0,0,1,1.9.7,2.3,2.3,0,0,1,.8,1.8,2.5,2.5,0,0,1-.3,1.2,4.1,4.1,0,0,1-.9,1Z" transform="translate(71.8 34.8)" style="fill:#fff"/><path d="M-3.6,39.2H-66.1a5.7,5.7,0,0,1-5.7-5.7V-29.1a5.7,5.7,0,0,1,5.7-5.7H-3.6a5.7,5.7,0,0,1,5.7,5.7V33.5A5.7,5.7,0,0,1-3.6,39.2ZM-66.1-32.5a3.4,3.4,0,0,0-3.4,3.4V33.5a3.5,3.5,0,0,0,3.4,3.4H-3.6A3.5,3.5,0,0,0-.1,33.5V-29.1a3.4,3.4,0,0,0-3.4-3.4H-66.1Z" transform="translate(71.8 34.8)" style="fill:#fff"/></svg>