<svg id="Calque_1" data-name="Calque 1" xmlns="http://www.w3.org/2000/svg" viewBox="0 0 74 74"><title>img_hd</title><path d="M-40.6,15.6H-95.8V8.4l16.1-21.7L-61.3,4.8h4.6L-40.6-6.1V15.6Z" transform="translate(105.2 50.3)" style="fill:#fff"/><path d="M-50.6-14.8c1.4-2.4,8.8-14.6,9.9-16.9-2.3,1.2-14.6,9.1-16.9,10.5s-2.3,1.2-2.9,2.9a5.6,5.6,0,0,0,1.2,5.3,5.6,5.6,0,0,0,5.3,1.2A6.3,6.3,0,0,0-50.6-14.8Z" transform="translate(105.2 50.3)" style="fill:#fff"/><path d="M-95-37.8h3.7v-3.8h2.6v9.9h-2.6v-4.1H-95v4.1h-2.6v-9.9H-95v3.8Z" transform="translate(105.2 50.3)" style="fill:#fff"/><path d="M-87.1-31.7v-9.9h3.6a4.9,4.9,0,0,1,3.6,1.4,4.7,4.7,0,0,1,1.5,3.5,4.7,4.7,0,0,1-1.5,3.5,4.9,4.9,0,0,1-3.6,1.4h-3.6Zm2.6-7.7v5.5h0.6a3,3,0,0,0,2-.7,2.6,2.6,0,0,0,.8-2.1,2.7,2.7,0,0,0-.8-2,2.9,2.9,0,0,0-2-.7h-0.6Z" transform="translate(105.2 50.3)" style="fill:#fff"/><path d="M-36.9,23.7H-99.4a5.7,5.7,0,0,1-5.7-5.7V-44.6a5.7,5.7,0,0,1,5.7-5.7h62.5a5.7,5.7,0,0,1,5.7,5.7V17.9A5.7,5.7,0,0,1-36.9,23.7ZM-99.4-48.1a3.4,3.4,0,0,0-3.4,3.4V17.9a3.5,3.5,0,0,0,3.4,3.4h62.5a3.5,3.5,0,0,0,3.4-3.4V-44.6a3.4,3.4,0,0,0-3.4-3.4H-99.4Z" transform="translate(105.2 50.3)" style="fill:#fff"/></svg>