<svg id="Calque_1" data-name="Calque 1" xmlns="http://www.w3.org/2000/svg" viewBox="0 0 74 74"><title>img_sd</title><path d="M11.4,49.5H-43.7V42.2l16.1-21.7L-9.2,38.6h4.6L11.4,27.7V49.5Z" transform="translate(53.1 16.5)" style="fill:#fff"/><path d="M1.5,19c1.4-2.4,8.8-14.6,9.9-16.9C9.1,3.3-3.1,11.2-5.5,12.6s-2.3,1.2-2.9,2.9a5.6,5.6,0,0,0,1.2,5.3A5.6,5.6,0,0,0-2,22,6.3,6.3,0,0,0,1.5,19Z" transform="translate(53.1 16.5)" style="fill:#fff"/><path d="M-39.1-7.2l-1,2a2.6,2.6,0,0,0-1.7-.7l-0.8.2a0.7,0.7,0,0,0-.3.6,0.6,0.6,0,0,0,.2.5l0.4,0.3,0.5,0.2,0.7,0.2a4.3,4.3,0,0,1,1.8,1,2.3,2.3,0,0,1,.6,1.7,3.3,3.3,0,0,1-1,2.7,4.2,4.2,0,0,1-2.8.9A5.9,5.9,0,0,1-46,1.2l1.1-2.1a3.5,3.5,0,0,0,2.3,1l0.9-.3a0.8,0.8,0,0,0,.4-0.7q0-.7-1.2-1h-0.3L-44-2.3l-0.8-.5a1.7,1.7,0,0,1-.6-0.8,3.4,3.4,0,0,1-.2-1.2,3.2,3.2,0,0,1,1-2.4,3.4,3.4,0,0,1,2.5-.9l1.6,0.2Z" transform="translate(53.1 16.5)" style="fill:#fff"/><path d="M-37.4,2.1V-7.8h3.6a4.9,4.9,0,0,1,3.6,1.4,4.7,4.7,0,0,1,1.5,3.5A4.7,4.7,0,0,1-30.3.7a4.9,4.9,0,0,1-3.6,1.4h-3.6Zm2.6-7.7v5.5h0.6a3,3,0,0,0,2-.7,2.6,2.6,0,0,0,.8-2.1,2.7,2.7,0,0,0-.8-2,2.9,2.9,0,0,0-2-.7h-0.6Z" transform="translate(53.1 16.5)" style="fill:#fff"/><path d="M15.1,57.5H-47.4a5.7,5.7,0,0,1-5.7-5.7V-10.8a5.7,5.7,0,0,1,5.7-5.7H15.1a5.7,5.7,0,0,1,5.7,5.7V51.8A5.7,5.7,0,0,1,15.1,57.5ZM-47.4-14.2a3.5,3.5,0,0,0-3.4,3.4V51.8a3.5,3.5,0,0,0,3.4,3.4H15.1a3.5,3.5,0,0,0,3.4-3.4V-10.8a3.5,3.5,0,0,0-3.4-3.4H-47.4Z" transform="translate(53.1 16.5)" style="fill:#fff"/></svg>