<svg id="Calque_1" data-name="Calque 1" xmlns="http://www.w3.org/2000/svg" viewBox="0 0 40 40"><title>target</title><path d="M-121,351.5a15.5,15.5,0,0,0-15.2-15.2v-4.6h-0.4v4.6a15.5,15.5,0,0,0-15.2,15.2h-4.6v0.4h4.6a15.5,15.5,0,0,0,15.2,15.2v4.6h0.4v-4.6A15.5,15.5,0,0,0-121,351.9h4.6v-0.4H-121Zm-15.6-14.8v6.5a8.6,8.6,0,0,0-8.4,8.4h-6.5A15,15,0,0,1-136.6,336.7Zm0,30.1a15,15,0,0,1-14.8-14.8h6.5a8.6,8.6,0,0,0,8.4,8.4v6.5Zm0.2-6.9h-0.2a8.2,8.2,0,0,1-8-8v-0.4a8.2,8.2,0,0,1,8-8h0.4a8.2,8.2,0,0,1,8,8v0.4a8.2,8.2,0,0,1-8,8h-0.2Zm0.2,6.9v-6.5a8.6,8.6,0,0,0,8.4-8.4h6.5A15,15,0,0,1-136.2,366.7Zm8.4-15.2a8.6,8.6,0,0,0-8.4-8.4v-6.5a15,15,0,0,1,14.8,14.8h-6.5Z" transform="translate(156.4 -331.7)" style="fill:#fff"/></svg>