<svg id="Calque_1" data-name="Calque 1" xmlns="http://www.w3.org/2000/svg" viewBox="0 0 74 74"><title>vid_sd</title><path d="M-52.8,7.9a102.3,102.3,0,0,0-14.5-1,102.3,102.3,0,0,0-14.5,1A44,44,0,0,0-83,18.7a44,44,0,0,0,1.3,10.8,102.3,102.3,0,0,0,14.5,1,102.3,102.3,0,0,0,14.5-1,44,44,0,0,0,1.3-10.8A44,44,0,0,0-52.8,7.9ZM-71.2,24.6V12.8l9.9,5.9Z" transform="translate(93 35.4)" style="fill:#fff"/><path d="M-38.3.1c1.4-2.4,8.8-14.6,9.9-16.9C-30.7-15.7-43-7.7-45.4-6.3s-2.3,1.2-2.9,2.9a5.6,5.6,0,0,0,1.2,5.3A5.6,5.6,0,0,0-41.8,3,6.3,6.3,0,0,0-38.3.1Z" transform="translate(93 35.4)" style="fill:#fff"/><path d="M-78.9-26.2l-1,2a2.6,2.6,0,0,0-1.7-.7l-0.8.2a0.7,0.7,0,0,0-.3.6,0.6,0.6,0,0,0,.2.5l0.4,0.3,0.5,0.2,0.7,0.2a4.3,4.3,0,0,1,1.8,1,2.3,2.3,0,0,1,.6,1.7,3.3,3.3,0,0,1-1,2.7,4.2,4.2,0,0,1-2.8.9,6,6,0,0,1-3.5-1.1l1.1-2.1a3.5,3.5,0,0,0,2.3,1l0.9-.3a0.8,0.8,0,0,0,.4-0.7q0-.7-1.2-1h-0.3l-1.1-.4-0.8-.5a1.7,1.7,0,0,1-.6-0.8,3.4,3.4,0,0,1-.2-1.2,3.2,3.2,0,0,1,1-2.4A3.4,3.4,0,0,1-82-27l1.6,0.2Z" transform="translate(93 35.4)" style="fill:#fff"/><path d="M-77.3-16.8v-9.9h3.6a4.9,4.9,0,0,1,3.6,1.4,4.7,4.7,0,0,1,1.5,3.5,4.7,4.7,0,0,1-1.5,3.5,4.9,4.9,0,0,1-3.6,1.4h-3.6Zm2.6-7.7V-19h0.6a3,3,0,0,0,2-.7,2.6,2.6,0,0,0,.8-2.1,2.7,2.7,0,0,0-.8-2,2.9,2.9,0,0,0-2-.7h-0.6Z" transform="translate(93 35.4)" style="fill:#fff"/><path d="M-24.7,38.6H-87.2A5.7,5.7,0,0,1-93,32.8V-29.7a5.7,5.7,0,0,1,5.7-5.7h62.5A5.7,5.7,0,0,1-19-29.7V32.8A5.7,5.7,0,0,1-24.7,38.6ZM-87.2-33.1a3.4,3.4,0,0,0-3.4,3.4V32.8a3.5,3.5,0,0,0,3.4,3.4h62.5a3.5,3.5,0,0,0,3.4-3.4V-29.7a3.4,3.4,0,0,0-3.4-3.4H-87.2Z" transform="translate(93 35.4)" style="fill:#fff"/></svg>