<svg id="Calque_1" data-name="Calque 1" xmlns="http://www.w3.org/2000/svg" viewBox="0 0 65.5 36.2"><title>vid_sd</title><path d="M9.1,2.7l-1,2A2.6,2.6,0,0,0,6.4,4l-0.8.2a0.7,0.7,0,0,0-.3.6,0.6,0.6,0,0,0,.2.5L5.9,5.6,6.4,5.8,7.1,6A4.3,4.3,0,0,1,8.9,7a2.3,2.3,0,0,1,.6,1.7,3.3,3.3,0,0,1-1,2.7,4.2,4.2,0,0,1-2.8.9,5.9,5.9,0,0,1-3.5-1.2L3.3,9a3.5,3.5,0,0,0,2.3,1l0.9-.3A0.8,0.8,0,0,0,6.9,9q0-.7-1.2-1H5.4L4.2,7.6,3.4,7.1a1.7,1.7,0,0,1-.6-0.8,3.4,3.4,0,0,1-.2-1.2,3.2,3.2,0,0,1,1-2.4,3.4,3.4,0,0,1,2.5-.9L7.7,2Z" transform="translate(-2.2 -1.8)" style="fill:#fff"/><path d="M10.8,12V2.1h3.6A4.9,4.9,0,0,1,18,3.5,4.7,4.7,0,0,1,19.5,7a4.7,4.7,0,0,1-1.6,3.6A4.9,4.9,0,0,1,14.3,12H10.8Zm2.6-7.7V9.8H14a3,3,0,0,0,2-.7A2.6,2.6,0,0,0,16.8,7,2.7,2.7,0,0,0,16,5a2.9,2.9,0,0,0-2-.7H13.4Z" transform="translate(-2.2 -1.8)" style="fill:#fff"/><path d="M67,25.3a59.2,59.2,0,0,0-16.3,0,25.3,25.3,0,0,0,0,12.2,57.4,57.4,0,0,0,8.1.6,57.4,57.4,0,0,0,8.1-.6A25.8,25.8,0,0,0,67,25.3ZM56.7,34.7V28.1l5.6,3.3Z" transform="translate(-2.2 -1.8)" style="fill:#fff"/></svg>