<?xml version="1.0" encoding="utf-8"?>
<!-- Generator: Adobe Illustrator 19.2.1, SVG Export Plug-In . SVG Version: 6.00 Build 0)  -->
<svg version="1.1" id="Calque_1" xmlns="http://www.w3.org/2000/svg" xmlns:xlink="http://www.w3.org/1999/xlink" x="0px" y="0px"
	 viewBox="0 0 69.8 40" style="enable-background:new 0 0 69.8 40;" xml:space="preserve">
<style type="text/css">
	.st0{display:none;}
	.st1{display:inline;fill:#FFFFFF;}
	.st2{fill:#FFFFFF;}
</style>
<g class="st0">
	<path class="st1" d="M4.8,5.6h3.7V1.8h2.6v9.9H8.5V7.6H4.8v4.1H2.2V1.8h2.6V5.6z"/>
	<path class="st1" d="M12.7,11.7V1.8h3.6c1.3,0,2.6,0.5,3.6,1.4s1.5,2.2,1.5,3.5s-0.5,2.6-1.5,3.5c-1,0.9-2.3,1.4-3.6,1.4L12.7,11.7
		L12.7,11.7z M15.3,4v5.5h0.6c0.7,0,1.4-0.2,2-0.7s0.9-1.3,0.8-2.1c0-0.7-0.3-1.5-0.8-2c-0.6-0.5-1.3-0.7-2-0.7
		C15.9,4,15.3,4,15.3,4z"/>
</g>
<g class="st0">
	<path class="st1" d="M7.5,3.5H9l-4,9.7H3.5L7.5,3.5z"/>
	<path class="st1" d="M21.1,3.4l-1,2C19.6,5,19,4.7,18.4,4.7l-0.8,0.2c-0.2,0.1-0.3,0.4-0.3,0.6s0.1,0.4,0.2,0.5l0.4,0.3l0.5,0.2
		l0.7,0.2c0.7,0.2,1.3,0.5,1.8,1c0.4,0.5,0.6,1.1,0.6,1.7c0.1,1-0.3,2-1,2.7c-0.8,0.6-1.8,0.9-2.8,0.9c-1.3,0-2.5-0.4-3.5-1.1
		l1.1-2.1c0.6,0.6,1.4,1,2.3,1l0.9-0.3c0.2-0.1,0.4-0.4,0.4-0.7c0-0.5-0.4-0.8-1.2-1h-0.3l-1.1-0.4l-0.8-0.5
		c-0.3-0.2-0.5-0.5-0.6-0.8c-0.1-0.4-0.2-0.8-0.2-1.2c0-0.9,0.3-1.8,1-2.4c0.7-0.6,1.6-1,2.5-0.9l1.6,0.2L21.1,3.4z"/>
	<path class="st1" d="M25.3,7.9v4.8h-2.4V7.9h-0.8v-2h0.8v-2h2.4v2h1.4v2H25.3z"/>
	<path class="st1" d="M34.7,6v6.7h-2.4V12l0,0c-0.2,0.3-0.5,0.6-0.9,0.7l-1.2,0.2c-0.9,0-1.7-0.4-2.3-1c-0.6-0.7-1-1.6-1-2.5
		s0.4-1.8,1-2.5s1.5-1,2.4-1c0.8,0,1.6,0.3,2.1,0.9V6.1L34.7,6L34.7,6z M32,8.3c-0.3-0.3-0.7-0.4-1.1-0.4S30.1,8,29.8,8.3
		c-0.3,0.3-0.4,0.7-0.4,1.1c0,0.4,0.1,0.8,0.4,1.1s0.7,0.4,1.1,0.4s0.8-0.1,1.1-0.4c0.3-0.3,0.4-0.7,0.4-1.1S32.3,8.6,32,8.3z"/>
	<path class="st1" d="M41.2,6.1v2c-0.3-0.3-0.8-0.5-1.2-0.5c-0.5,0-0.9,0.2-1.2,0.5s-0.5,0.7-0.5,1.2s0.2,0.9,0.5,1.2S39.5,11,40,11
		s0.9-0.2,1.2-0.5v2c-0.5,0.3-1.1,0.4-1.7,0.4c-1,0-1.9-0.3-2.6-1c-0.7-0.6-1.1-1.5-1.1-2.5s0.4-1.9,1.1-2.6c0.7-0.7,1.7-1,2.7-1
		C40.1,5.8,40.7,5.9,41.2,6.1z"/>
	<path class="st1" d="M45,1.8v6.6L47.5,6h3.3l-3.4,3.1l3.6,3.6h-3.3L45.1,10v2.7h-2.4V1.8H45L45,1.8z"/>
	<path class="st1" d="M3,4.7H2.2V3.5h2.3V9H3V4.7z"/>
	<path class="st1" d="M9.9,11.9h1.9v1.2H7.2l2.3-2.5c0.4-0.4,0.6-0.8,0.6-1.4c0-0.2-0.1-0.3-0.2-0.5c0-0.1-0.2-0.2-0.4-0.2
		S9.1,8.5,9,8.7C8.9,8.8,8.8,9,8.8,9.2v0.2H7.2c0-0.6,0.2-1.1,0.6-1.5c0.4-0.4,1-0.6,1.5-0.6c0.6,0,1.1,0.2,1.5,0.6
		c0.4,0.4,0.7,0.9,0.6,1.4c0,0.3-0.1,0.7-0.2,1c-0.2,0.3-0.4,0.6-0.7,0.8L9.9,11.9z"/>
</g>
<g class="st0">
	<path class="st1" d="M67,25.3c-2.7-0.4-5.4-0.6-8.1-0.6c-2.7,0-5.4,0.2-8.1,0.6c-1,4-1,8.2,0,12.2c2.7,0.4,5.4,0.6,8.1,0.6
		c2.7,0,5.4-0.2,8.1-0.6c0.5-2,0.7-4,0.7-6.1C67.7,29.4,67.5,27.3,67,25.3z M56.7,34.7V28l5.6,3.3L56.7,34.7z"/>
	<path class="st1" d="M4.8,5.6h3.7V1.8h2.6v9.9H8.5v-4H4.8v4.1H2.2v-10h2.6V5.6z"/>
	<path class="st1" d="M12.7,11.8V1.9h3.7c1.3,0,2.6,0.5,3.5,1.5c1.9,1.9,2,5,0.1,6.9c0,0,0,0-0.1,0.1c-1,0.9-2.3,1.4-3.6,1.4H12.7z
		 M15.3,4.1v5.5h0.6c0.7,0,1.4-0.2,2-0.7s0.9-1.3,0.8-2.1c0-0.7-0.3-1.5-0.8-2c-0.6-0.5-1.3-0.7-2-0.7C15.9,4.1,15.3,4.1,15.3,4.1z"
		/>
</g>
<g class="st0">
	<path class="st1" d="M9.1,2.7l-1,2C7.7,4.3,7.1,4,6.4,4L5.6,4.2C5.4,4.4,5.3,4.6,5.3,4.8c0,0.2,0.1,0.4,0.2,0.5l0.4,0.3l0.5,0.2
		L7.1,6c0.7,0.2,1.3,0.5,1.8,1c0.4,0.5,0.6,1.1,0.6,1.7c0.1,1-0.3,2-1,2.7c-0.8,0.6-1.8,0.9-2.8,0.9c-1.3,0-2.5-0.4-3.5-1.2L3.3,9
		c0.6,0.6,1.4,1,2.3,1l0.9-0.3C6.8,9.6,6.9,9.3,6.9,9c0-0.5-0.4-0.8-1.2-1H5.4L4.2,7.6L3.4,7.1C3.2,6.9,3,6.6,2.8,6.3
		C2.7,5.9,2.6,5.5,2.6,5.1c0-0.9,0.3-1.8,1-2.4s1.6-1,2.5-0.9L7.7,2L9.1,2.7z"/>
	<path class="st1" d="M10.8,12V2.1h3.6c1.3,0,2.6,0.5,3.6,1.4s1.5,2.2,1.5,3.5c0,1.4-0.6,2.7-1.6,3.6c-1,0.9-2.3,1.4-3.6,1.4H10.8
		L10.8,12z M13.4,4.3v5.5H14c0.7,0,1.4-0.2,2-0.7s0.9-1.3,0.8-2.1c0-0.7-0.3-1.5-0.8-2c-0.6-0.5-1.3-0.7-2-0.7
		C14,4.3,13.4,4.3,13.4,4.3z"/>
	<path class="st1" d="M67,25.3c-2.7-0.4-5.4-0.6-8.1-0.6c-2.7,0-5.4,0.2-8.1,0.6c-1,4-1,8.2,0,12.2c2.7,0.4,5.4,0.6,8.1,0.6
		c2.7,0,5.4-0.2,8.1-0.6c0.5-2,0.7-4,0.7-6.1C67.7,29.4,67.5,27.3,67,25.3z M56.7,34.7V28l5.6,3.3L56.7,34.7z"/>
</g>
<g>
	<path class="st2" d="M2.5,1.8h6.5v2.3H5.2V6h3.5v2.2H5.2v3.9H2.5V1.8z"/>
	<path class="st2" d="M10.2,6.5c0.3-0.1,1.1-0.1,1.8-0.1c0.8,0,1.3,0.1,1.7,0.3c0.4,0.2,0.8,0.6,0.8,1.2c0,0.5-0.3,0.9-0.9,1.2v0
		c0.7,0.2,1.1,0.7,1.1,1.4c0,0.5-0.3,1-0.6,1.3c-0.4,0.3-1.1,0.5-2.3,0.5c-0.7,0-1.2,0-1.5-0.1V6.5z M11.7,8.6H12
		c0.6,0,0.9-0.2,0.9-0.6c0-0.3-0.2-0.5-0.8-0.5c-0.2,0-0.4,0-0.5,0V8.6z M11.7,11.1c0.1,0,0.2,0,0.4,0c0.5,0,0.9-0.2,0.9-0.7
		c0-0.5-0.4-0.7-1-0.7h-0.4V11.1z"/>
	<path class="st2" d="M16.4,12.2V9.8l-1.8-3.4h1.7l0.5,1.3c0.1,0.4,0.3,0.7,0.4,1.1h0c0.1-0.3,0.2-0.7,0.4-1.1l0.5-1.3h1.7l-1.8,3.4
		v2.4H16.4z"/>
	<path class="st2" d="M20.7,1.8h6.5v2.3h-3.8V6H27v2.2h-3.5v3.9h-2.7V1.8z"/>
</g>
</svg>
