<svg id="Calque_1" data-name="Calque 1" xmlns="http://www.w3.org/2000/svg" viewBox="0 0 74 74"><title>vid_hd</title><path d="M20,102.1a102.3,102.3,0,0,0-14.5-1,102.3,102.3,0,0,0-14.5,1,45.2,45.2,0,0,0,0,21.7,102.3,102.3,0,0,0,14.5,1,102.3,102.3,0,0,0,14.5-1A44,44,0,0,0,21.3,113,44,44,0,0,0,20,102.1ZM1.6,118.9V107l9.9,5.9Z" transform="translate(20.2 -58.8)" style="fill:#fff"/><path d="M34.4,94.4c1.4-2.4,8.8-14.6,9.9-16.9C42,78.6,29.8,86.5,27.4,87.9s-2.3,1.2-2.9,2.9a5.6,5.6,0,0,0,1.2,5.3,5.6,5.6,0,0,0,5.3,1.2A6.3,6.3,0,0,0,34.4,94.4Z" transform="translate(20.2 -58.8)" style="fill:#fff"/><path d="M-10,71.3h3.7V67.5h2.6v9.9H-6.3V73.4H-10v4.1h-2.6V67.5H-10v3.8Z" transform="translate(20.2 -58.8)" style="fill:#fff"/><path d="M-2.1,77.4V67.5H1.6A4.9,4.9,0,0,1,5.1,69a4.9,4.9,0,0,1,0,7,4.9,4.9,0,0,1-3.6,1.4H-2.1Zm2.6-7.7v5.5H1.1a3,3,0,0,0,2-.7,2.6,2.6,0,0,0,.8-2.1,2.7,2.7,0,0,0-.8-2,2.9,2.9,0,0,0-2-.7H0.5Z" transform="translate(20.2 -58.8)" style="fill:#fff"/><path d="M48.1,132.8H-14.5a5.7,5.7,0,0,1-5.7-5.7V64.6a5.7,5.7,0,0,1,5.7-5.7H48.1a5.7,5.7,0,0,1,5.7,5.7v62.5A5.7,5.7,0,0,1,48.1,132.8ZM-14.5,61.1a3.5,3.5,0,0,0-3.4,3.4v62.5a3.5,3.5,0,0,0,3.4,3.4H48.1a3.5,3.5,0,0,0,3.4-3.4V64.6a3.5,3.5,0,0,0-3.4-3.4H-14.5Z" transform="translate(20.2 -58.8)" style="fill:#fff"/></svg>