<svg id="Calque_1" data-name="Calque 1" xmlns="http://www.w3.org/2000/svg" viewBox="0 0 4836.4 1362.8"><title>allskycams</title><path d="M216.5,790.1L199.9,897.9H126.3l80.4-491.2h96.1l85.3,491.2H312.6L295.9,790.1H216.5Zm38.2-264.7L226.3,721.4h57.8Z" transform="translate(-36.1 -64.6)" style="fill:#fff"/><path d="M692,897.9H521.4V472.4h64.7V838.1H692v59.8h0Z" transform="translate(-36.1 -64.6)" style="fill:#fff"/><path d="M974.4,897.9H804.8V472.4h64.7V838.1H974.4v59.8h0Z" transform="translate(-36.1 -64.6)" style="fill:#fff"/><path d="M1237.1,528.3a106.9,106.9,0,0,0-12.7-46.1,33.3,33.3,0,0,0-29.4-13.7,37.3,37.3,0,0,0-30.4,12.7,52.9,52.9,0,0,0-10.8,35.3,86.3,86.3,0,0,0,2.9,23.5,85.3,85.3,0,0,0,10.8,22.5,162.8,162.8,0,0,0,19.6,24.5l32.4,31.4q28.4,26.5,47.1,46.1a227.5,227.5,0,0,1,29.4,38.2,124.5,124.5,0,0,1,14.7,36.3,183.3,183.3,0,0,1,3.9,40.2,148,148,0,0,1-8.8,51,114.7,114.7,0,0,1-23.5,39.2A108.8,108.8,0,0,1,1245,895a118.6,118.6,0,0,1-47.1,8.8,121.6,121.6,0,0,1-49-9.8,109.8,109.8,0,0,1-38.2-27.5,129.4,129.4,0,0,1-25.5-42.2,164.7,164.7,0,0,1-9.8-54.9l69.6-12.7q2.9,76.5,52,76.5a40.2,40.2,0,0,0,32.4-14.7,58.8,58.8,0,0,0,11.8-39.2,87.3,87.3,0,0,0-19.6-52.9l-7.8-9.8-9.8-9.8L1189.1,692l-24.5-22.5a422.5,422.5,0,0,1-39.2-40.2,237.3,237.3,0,0,1-25.5-36.3,141.2,141.2,0,0,1-14.7-35.3,161.8,161.8,0,0,1-4.9-38.2,122.6,122.6,0,0,1,31.4-88.2,110.8,110.8,0,0,1,84.3-33.3q98,0,110.8,118.6Z" transform="translate(-36.1 -64.6)" style="fill:#fff"/><path d="M1512.6,472.4V643l75.5-170.6h66.7l-72.6,148,83.3,277.5H1597L1543,700.9l-29.4,58.8V898.9h-64.7V472.4h63.7Z" transform="translate(-36.1 -64.6)" style="fill:#fff"/><path d="M1902.8,897.9h-64.7V725.4l-79.4-252.9h66.7l45.1,166.7,44.1-166.7h64.7l-76.5,252.9V897.9Z" transform="translate(-36.1 -64.6)" style="fill:#fff"/><path d="M2251.9,570.5V533.2q0-15.7-1-25.5a47.1,47.1,0,0,0-12.7-28.4,36.3,36.3,0,0,0-26.5-10.8q-30.4,0-38.2,33.3a484.4,484.4,0,0,0-2.9,72.6V729.3q0,36.3,1,53.9a98,98,0,0,0,3.9,25.5,38,38,0,0,0,62.7,15.7,47.1,47.1,0,0,0,11.8-30.4,291.1,291.1,0,0,0,2-32.4V722.4h74.5v32.4q0,16.7-1,29.4a210.8,210.8,0,0,1-2.9,23.5,108.8,108.8,0,0,1-4.9,19.6,157.8,157.8,0,0,1-8.8,18.6,102.9,102.9,0,0,1-39.2,43.1,111.8,111.8,0,0,1-58.8,15.7,121.6,121.6,0,0,1-49-9.8,94.1,94.1,0,0,1-38.2-29.4,142.2,142.2,0,0,1-14.7-22.5,102,102,0,0,1-8.8-25.5,202,202,0,0,1-4.9-34.3q-1-19.6-1-49V567.5q0-28.4,1-49a203.9,203.9,0,0,1,4.9-34.3,102.9,102.9,0,0,1,8.8-25.5,143.2,143.2,0,0,1,14.7-22.5,94.1,94.1,0,0,1,38.2-29.4,121.6,121.6,0,0,1,49-9.8,116.7,116.7,0,0,1,57.8,13.7,102.9,102.9,0,0,1,40.2,40.2,132.4,132.4,0,0,1,13.7,36.3,266.7,266.7,0,0,1,3.9,50v30.4h-74.5v2.9Z" transform="translate(-36.1 -64.6)" style="fill:#fff"/><path d="M2533.3,803.8l-14.7,94.1h-63.7l69.6-425.5h82.4l73.5,425.5h-65.7l-14.7-94.1h-66.7Zm33.3-229.4L2542.1,744h50Z" transform="translate(-36.1 -64.6)" style="fill:#fff"/><path d="M3014.6,897.9V603.8l-60.8,294.1h-28.4l-64.7-294.1V897.9h-58.8V472.4h84.3l52.9,258.8,48-258.8h86.3V897.9h-58.8Z" transform="translate(-36.1 -64.6)" style="fill:#fff"/><path d="M3333.3,578.3a92.2,92.2,0,0,0-10.8-40.2,29.4,29.4,0,0,0-25.5-11.8,32.4,32.4,0,0,0-26.5,11.8,46.1,46.1,0,0,0-9.8,30.4,75.5,75.5,0,0,0,2.9,19.6,73.5,73.5,0,0,0,8.8,19.6,140.2,140.2,0,0,0,17.6,21.6l28.4,27.5q24.5,22.5,41.2,40.2a197.1,197.1,0,0,1,25.5,32.4,107.8,107.8,0,0,1,12.7,31.4,157.8,157.8,0,0,1,3.9,34.3,128.4,128.4,0,0,1-6.9,44.1,100,100,0,0,1-20.6,34.3,94.1,94.1,0,0,1-31.4,22.5,102.9,102.9,0,0,1-41.2,7.8,105.9,105.9,0,0,1-43.1-8.8,95.1,95.1,0,0,1-32.4-23.5,112.7,112.7,0,0,1-21.6-36.3,143.1,143.1,0,0,1-8.8-47.1l60.8-10.8q2.9,66.7,45.1,66.7a35.3,35.3,0,0,0,28.4-12.7,51,51,0,0,0,10.8-33.3,75.5,75.5,0,0,0-16.7-46.1l-6.9-8.8-7.8-8.8L3297,721.4l-21.6-19.6a365.7,365.7,0,0,1-34.3-34.3,205.9,205.9,0,0,1-22.5-31.4,122.6,122.6,0,0,1-12.7-30.4,140.2,140.2,0,0,1-3.9-33.3,106.9,106.9,0,0,1,27.5-76.5,96.1,96.1,0,0,1,72.6-28.4q84.3,0,96.1,102.9Z" transform="translate(-36.1 -64.6)" style="fill:#fff"/><polygon points="3917.8 917.7 4813.9 903 3924.6 892.2 4836.4 547.1 3921.7 867.7 4375.6 509.8 3905 853 4131.5 508.8 3883.5 846.1 4064.8 0 3857 844.1 3714.8 305.9 3830.5 852 3520.7 508.8 3809.9 869.6 3455 724.5 3788.4 887.3 0 918.7 3774.6 922.6 2913.8 1260.8 3792.3 941.2 3358.9 1301 3807 957.9 3558 1362.8 3829.5 965.7 3773.7 1257.9 3856 965.7 3943.3 1291.2 3883.5 957.9 4176.6 1298.1 3905 941.2 4411.9 1155.9 3917.8 917.7" style="fill:#ffa200"/><text transform="translate(88.2 1098.1)" style="font-size:117.65087890625px;fill:#fff;font-family:DejaVu Sans"><tspan style="letter-spacing:4px">NE</tspan><tspan x="171.8" y="0" style="letter-spacing:2px">X</tspan><tspan x="255" y="0" style="letter-spacing:4px">T GENE</tspan><tspan x="720.3" y="0">R</tspan><tspan x="802" y="0" style="letter-spacing:-4px">A</tspan><tspan x="878.1" y="0" style="letter-spacing:4px">TION METEOR CAME</tspan><tspan x="2150.2" y="0">R</tspan><tspan x="2231.9" y="0" style="letter-spacing:4px">A SYSTEM</tspan></text></svg>