<svg id="Calque_1" data-name="Calque 1" xmlns="http://www.w3.org/2000/svg" viewBox="0 0 3876.2 1362.8"><title>allskytv</title><path d="M786.4,2889.7l-16.7,107.8H696.2l80.4-491.2h96.1L958,2997.5H882.5l-16.7-107.8H786.4Zm38.2-264.7L796.2,2821h57.8Z" transform="translate(-690.4 -2164.1)" style="fill:#fff"/><path d="M1261.9,2997.5H1091.3V2572H1156v365.7h105.9v59.8h0Z" transform="translate(-690.4 -2164.1)" style="fill:#fff"/><path d="M1544.3,2997.5H1374.7V2572h64.7v365.7h104.9v59.8h0Z" transform="translate(-690.4 -2164.1)" style="fill:#fff"/><path d="M1807,2627.9a106.9,106.9,0,0,0-12.7-46.1,33.3,33.3,0,0,0-29.4-13.7,37.3,37.3,0,0,0-30.4,12.7,52.9,52.9,0,0,0-10.8,35.3,86.3,86.3,0,0,0,2.9,23.5,85.3,85.3,0,0,0,10.8,22.5,162.8,162.8,0,0,0,19.6,24.5l32.4,31.4q28.4,26.5,47.1,46.1a227.5,227.5,0,0,1,29.4,38.2,124.5,124.5,0,0,1,14.7,36.3,183.3,183.3,0,0,1,3.9,40.2,148,148,0,0,1-8.8,51,114.7,114.7,0,0,1-23.5,39.2,108.8,108.8,0,0,1-37.3,25.5,118.6,118.6,0,0,1-47.1,8.8,121.6,121.6,0,0,1-49-9.8,109.8,109.8,0,0,1-38.2-27.5,129.4,129.4,0,0,1-25.5-42.2,164.7,164.7,0,0,1-9.8-54.9l69.6-12.7q2.9,76.5,52,76.5a40.2,40.2,0,0,0,32.4-14.7,58.8,58.8,0,0,0,11.8-39.2,87.3,87.3,0,0,0-19.6-52.9l-7.8-9.8-9.8-9.8-14.7-14.7-24.5-22.5a422.5,422.5,0,0,1-39.2-40.2,237.3,237.3,0,0,1-25.5-36.3,141.2,141.2,0,0,1-14.7-35.3,161.8,161.8,0,0,1-4.9-38.2,122.6,122.6,0,0,1,31.4-88.2,110.8,110.8,0,0,1,84.3-33.3q98,0,110.8,118.6Z" transform="translate(-690.4 -2164.1)" style="fill:#fff"/><path d="M2082.5,2572v170.6L2158,2572h66.7l-72.6,148,83.3,277.5h-68.6l-53.9-197.1-29.4,58.8v139.2h-64.7V2572h63.7Z" transform="translate(-690.4 -2164.1)" style="fill:#fff"/><path d="M2472.7,2997.5H2408V2824.9L2328.6,2572h66.7l45.1,166.7,44.1-166.7h64.7l-76.5,252.9v172.6Z" transform="translate(-690.4 -2164.1)" style="fill:#fff"/><polygon points="2957.6 917.7 3853.7 903 2964.4 892.2 3876.2 547.1 2961.5 867.7 3415.4 509.8 2944.8 853 3171.3 508.8 2923.2 846.1 3104.6 0 2896.8 844.1 2754.6 305.9 2870.3 852 2560.5 508.8 2849.7 869.6 2494.8 724.5 2828.1 887.3 0 918.7 2814.4 922.6 1953.6 1260.8 2832.1 941.2 2398.7 1301 2846.8 957.9 2597.7 1362.8 2869.3 965.7 2813.4 1257.9 2895.8 965.7 2983 1291.2 2923.2 957.9 3216.4 1298.1 2944.8 941.2 3451.7 1155.9 2957.6 917.7" style="fill:#ffa200"/><path d="M2702.6,2584h-75.8v-71.7h222.6V2584h-75.5V2985h-71.3V2584Z" transform="translate(-690.4 -2164.1)" style="fill:#fff"/><path d="M3004.5,2981.4L2920,2508.6h74.7l59.3,368.5,59.8-368.5h74.8l-86,472.8h-98.1Z" transform="translate(-690.4 -2164.1)" style="fill:#fff"/></svg>