<svg id="Calque_2" data-name="Calque 2" xmlns="http://www.w3.org/2000/svg" viewBox="0 0 40 40"><title>target</title><path d="M-46.6,172.7a15.5,15.5,0,0,0-15.1-15.1V153h-0.7v4.5a15.5,15.5,0,0,0-15.1,15.1H-82v0.7h4.5a15.5,15.5,0,0,0,15.1,15.1V193h0.7v-4.5a15.5,15.5,0,0,0,15.1-15.1H-42v-0.7h-4.5ZM-62,165h0.3a8,8,0,0,1,7.7,7.7c0,0.1,0,.2,0,0.3s0,0.2,0,.3a8,8,0,0,1-7.7,7.7h-0.7a8,8,0,0,1-7.7-7.7c0-.1,0-0.2,0-0.3s0-.2,0-0.3a8,8,0,0,1,7.7-7.7H-62Zm-0.3-6.8v6.1a8.7,8.7,0,0,0-8.3,8.3h-6.1A14.8,14.8,0,0,1-62.4,158.2Zm-14.4,15.1h6.1a8.7,8.7,0,0,0,8.3,8.3v6.1A14.8,14.8,0,0,1-76.8,173.4Zm29.6,0a14.8,14.8,0,0,1-14.4,14.4v-6.1a8.7,8.7,0,0,0,8.3-8.3m0-.7a8.7,8.7,0,0,0-8.3-8.3v-6.1a14.8,14.8,0,0,1,14.4,14.4h-6.1Z" transform="translate(82 -153)" style="fill:#fff"/></svg>